<mxfile host="65bd71144e">
    <diagram id="BUKlnbvieITZ3QIiz7vc" name="Page-1">
        <mxGraphModel dx="779" dy="477" grid="1" gridSize="10" guides="1" tooltips="1" connect="1" arrows="1" fold="1" page="1" pageScale="1" pageWidth="850" pageHeight="1100" math="0" shadow="0">
            <root>
                <mxCell id="0"/>
                <mxCell id="1" parent="0"/>
                <mxCell id="DrO0bq1NnbWev6QGt80c-5" value="Browser / &lt;br&gt;JS Frontend" style="shape=umlLifeline;perimeter=lifelinePerimeter;whiteSpace=wrap;html=1;container=1;collapsible=0;recursiveResize=0;outlineConnect=0;fontSize=14;strokeWidth=2;" parent="1" vertex="1">
                    <mxGeometry x="380" y="100" width="100" height="320" as="geometry"/>
                </mxCell>
                <mxCell id="DrO0bq1NnbWev6QGt80c-16" value="" style="html=1;points=[];perimeter=orthogonalPerimeter;fontSize=14;strokeWidth=2;" parent="DrO0bq1NnbWev6QGt80c-5" vertex="1">
                    <mxGeometry x="45" y="68" width="10" height="20" as="geometry"/>
                </mxCell>
                <mxCell id="DrO0bq1NnbWev6QGt80c-6" value="Quarkus&lt;br&gt;HTTP Layer" style="shape=umlLifeline;perimeter=lifelinePerimeter;whiteSpace=wrap;html=1;container=1;collapsible=0;recursiveResize=0;outlineConnect=0;fontSize=14;strokeWidth=2;" parent="1" vertex="1">
                    <mxGeometry x="580" y="100" width="100" height="320" as="geometry"/>
                </mxCell>
                <mxCell id="DrO0bq1NnbWev6QGt80c-19" value="" style="html=1;points=[];perimeter=orthogonalPerimeter;fontSize=14;strokeWidth=2;" parent="DrO0bq1NnbWev6QGt80c-6" vertex="1">
                    <mxGeometry x="45" y="88" width="10" height="42" as="geometry"/>
                </mxCell>
                <mxCell id="DrO0bq1NnbWev6QGt80c-20" value="GET example.com" style="html=1;verticalAlign=bottom;endArrow=block;entryX=0;entryY=0;fontSize=14;exitX=1;exitY=1;exitDx=0;exitDy=0;exitPerimeter=0;strokeWidth=2;" parent="1" source="DrO0bq1NnbWev6QGt80c-16" target="DrO0bq1NnbWev6QGt80c-19" edge="1">
                    <mxGeometry relative="1" as="geometry">
                        <mxPoint x="495" y="188" as="sourcePoint"/>
                    </mxGeometry>
                </mxCell>
                <mxCell id="DrO0bq1NnbWev6QGt80c-17" value="example.com" style="html=1;verticalAlign=bottom;endArrow=block;entryX=0;entryY=0;fontSize=14;" parent="1" source="DrO0bq1NnbWev6QGt80c-24" target="DrO0bq1NnbWev6QGt80c-16" edge="1">
                    <mxGeometry relative="1" as="geometry">
                        <mxPoint x="289.5" y="168" as="sourcePoint"/>
                    </mxGeometry>
                </mxCell>
                <mxCell id="DrO0bq1NnbWev6QGt80c-22" value="" style="html=1;points=[];perimeter=orthogonalPerimeter;fontSize=14;strokeWidth=2;" parent="1" vertex="1">
                    <mxGeometry x="425" y="231" width="10" height="22" as="geometry"/>
                </mxCell>
                <mxCell id="DrO0bq1NnbWev6QGt80c-21" value="200 OK&lt;br&gt;(index.html,&amp;nbsp;JS Frontend)" style="html=1;verticalAlign=bottom;endArrow=open;dashed=1;endSize=8;exitX=0;exitY=1;fontSize=14;entryX=1.1;entryY=0;entryDx=0;entryDy=0;entryPerimeter=0;exitDx=0;exitDy=0;exitPerimeter=0;labelBackgroundColor=none;strokeWidth=2;" parent="1" source="DrO0bq1NnbWev6QGt80c-19" target="DrO0bq1NnbWev6QGt80c-22" edge="1">
                    <mxGeometry relative="1" as="geometry">
                        <mxPoint x="460" y="228" as="targetPoint"/>
                    </mxGeometry>
                </mxCell>
                <mxCell id="DrO0bq1NnbWev6QGt80c-23" value="&lt;u&gt;click on&lt;/u&gt;&lt;br&gt;example.com/page" style="html=1;verticalAlign=bottom;endArrow=block;entryX=0;entryY=0;fontSize=14;labelBackgroundColor=none;" parent="1" source="DrO0bq1NnbWev6QGt80c-24" edge="1">
                    <mxGeometry relative="1" as="geometry">
                        <mxPoint x="290" y="269" as="sourcePoint"/>
                        <mxPoint x="425.5" y="269" as="targetPoint"/>
                    </mxGeometry>
                </mxCell>
                <mxCell id="DrO0bq1NnbWev6QGt80c-24" value="" style="shape=umlLifeline;participant=umlActor;perimeter=lifelinePerimeter;whiteSpace=wrap;html=1;container=1;collapsible=0;recursiveResize=0;verticalAlign=top;spacingTop=36;outlineConnect=0;fontSize=14;strokeWidth=2;" parent="1" vertex="1">
                    <mxGeometry x="273" y="100" width="20" height="320" as="geometry"/>
                </mxCell>
                <mxCell id="DrO0bq1NnbWev6QGt80c-27" value="internal&amp;nbsp;routing&lt;br&gt;to /page" style="edgeStyle=orthogonalEdgeStyle;html=1;align=left;spacingLeft=2;endArrow=block;rounded=0;entryX=1;entryY=0;fontSize=14;strokeWidth=2;" parent="1" edge="1">
                    <mxGeometry relative="1" as="geometry">
                        <mxPoint x="435" y="277" as="sourcePoint"/>
                        <Array as="points">
                            <mxPoint x="465" y="277"/>
                        </Array>
                        <mxPoint x="440" y="297" as="targetPoint"/>
                    </mxGeometry>
                </mxCell>
                <mxCell id="DrO0bq1NnbWev6QGt80c-28" value="" style="html=1;points=[];perimeter=orthogonalPerimeter;fontSize=14;strokeWidth=2;" parent="1" vertex="1">
                    <mxGeometry x="425" y="267" width="10" height="53" as="geometry"/>
                </mxCell>
                <mxCell id="DrO0bq1NnbWev6QGt80c-26" value="" style="html=1;points=[];perimeter=orthogonalPerimeter;fontSize=14;strokeWidth=2;" parent="1" vertex="1">
                    <mxGeometry x="430" y="297" width="10" height="23" as="geometry"/>
                </mxCell>
                <mxCell id="DrO0bq1NnbWev6QGt80c-30" value="" style="html=1;points=[];perimeter=orthogonalPerimeter;fontSize=14;strokeWidth=2;" parent="1" vertex="1">
                    <mxGeometry x="425" y="360" width="10" height="20" as="geometry"/>
                </mxCell>
                <mxCell id="DrO0bq1NnbWev6QGt80c-29" value="&lt;u&gt;refresh of&lt;/u&gt;&lt;br&gt;example.com/page" style="html=1;verticalAlign=bottom;endArrow=block;fontSize=14;entryX=0;entryY=0;entryDx=0;entryDy=0;entryPerimeter=0;labelBackgroundColor=none;" parent="1" source="DrO0bq1NnbWev6QGt80c-24" target="DrO0bq1NnbWev6QGt80c-30" edge="1">
                    <mxGeometry relative="1" as="geometry">
                        <mxPoint x="287" y="360" as="sourcePoint"/>
                        <mxPoint x="420" y="360" as="targetPoint"/>
                    </mxGeometry>
                </mxCell>
                <mxCell id="DrO0bq1NnbWev6QGt80c-31" value="GET example.com/page" style="html=1;verticalAlign=bottom;endArrow=block;fontSize=14;exitX=0.5;exitY=1;exitDx=0;exitDy=0;exitPerimeter=0;entryX=-0.1;entryY=0;entryDx=0;entryDy=0;entryPerimeter=0;labelBackgroundColor=none;strokeWidth=2;" parent="1" source="DrO0bq1NnbWev6QGt80c-30" target="DrO0bq1NnbWev6QGt80c-32" edge="1">
                    <mxGeometry relative="1" as="geometry">
                        <mxPoint x="440" y="380" as="sourcePoint"/>
                        <mxPoint x="570" y="380" as="targetPoint"/>
                    </mxGeometry>
                </mxCell>
                <mxCell id="DrO0bq1NnbWev6QGt80c-32" value="" style="html=1;points=[];perimeter=orthogonalPerimeter;fontSize=14;strokeWidth=2;" parent="1" vertex="1">
                    <mxGeometry x="625" y="380" width="10" height="30" as="geometry"/>
                </mxCell>
                <mxCell id="DrO0bq1NnbWev6QGt80c-33" value="404 Not Found" style="html=1;verticalAlign=bottom;endArrow=open;dashed=1;endSize=8;exitX=-0.1;exitY=1;fontSize=14;exitDx=0;exitDy=0;exitPerimeter=0;labelBackgroundColor=none;strokeWidth=2;" parent="1" source="DrO0bq1NnbWev6QGt80c-32" target="DrO0bq1NnbWev6QGt80c-5" edge="1">
                    <mxGeometry relative="1" as="geometry">
                        <mxPoint x="436" y="422" as="targetPoint"/>
                        <mxPoint x="590" y="422" as="sourcePoint"/>
                    </mxGeometry>
                </mxCell>
            </root>
        </mxGraphModel>
    </diagram>
</mxfile>